g 1
v -1.1875 -0.5 0.3125
v -1.1875 -0.375 0.3125
v -1.1875 -0.5 -0.3125
v -1.1875 -0.375 -0.3125
v -0.8125 -0.5 0.3125
v -0.8125 -0.375 0.3125
v -0.8125 -0.5 -0.3125
v -0.8125 -0.375 -0.3125
v 0.8125 -0.5 0.3125
v 0.8125 -0.375 0.3125
v 0.8125 -0.5 -0.3125
v 0.8125 -0.375 -0.3125
v 1.1875 -0.5 0.3125
v 1.1875 -0.375 0.3125
v 1.1875 -0.5 -0.3125
v 1.1875 -0.375 -0.3125
vt 0.3125 0.1875
vt 0.1875 0.8125
vt 0.1875 0.1875
vt 0.3125 0.8125
vt 0.6875 0.9375
vt 0.3125 0.9375
vt 0.6875 0.8125
vt 0.8125 0.1875
vt 0.8125 0.8125
vt 0.6875 0.1875
vt 0.3125 0.0625
vt 0.6875 0.0625
vt 0.6875 0.1875
vt 0.3125 0.8125
vt 0.3125 0.1875
vt 0.6875 0.1875
vt 0.3125 0.8125
vt 0.3125 0.1875
vt 0.3125 0.1875
vt 0.1875 0.8125
vt 0.1875 0.1875
vt 0.3125 0.8125
vt 0.6875 0.9375
vt 0.3125 0.9375
vt 0.6875 0.8125
vt 0.8125 0.1875
vt 0.8125 0.8125
vt 0.6875 0.1875
vt 0.3125 0.0625
vt 0.6875 0.0625
vt 0.6875 0.1875
vt 0.3125 0.8125
vt 0.3125 0.1875
vt 0.6875 0.1875
vt 0.3125 0.8125
vt 0.3125 0.1875
vt 0.6875 0.8125
vt 0.6875 0.8125
vt 0.6875 0.8125
vt 0.6875 0.8125
vn -1 0 0
vn 0 0 -1
vn 1 0 0
vn 0 0 1
vn 0 -1 0
vn 0 1 0
s off
f 2/1/1 3/2/1 1/3/1
f 4/4/2 7/5/2 3/6/2
f 8/7/3 5/8/3 7/9/3
f 6/10/4 1/11/4 5/12/4
f 7/13/5 1/14/5 3/15/5
f 4/16/6 6/17/6 8/18/6
f 10/19/1 11/20/1 9/21/1
f 12/22/2 15/23/2 11/24/2
f 16/25/3 13/26/3 15/27/3
f 14/28/4 9/29/4 13/30/4
f 15/31/5 9/32/5 11/33/5
f 12/34/6 14/35/6 16/36/6
f 2/1/1 4/4/1 3/2/1
f 4/4/2 8/7/2 7/5/2
f 8/7/3 6/10/3 5/8/3
f 6/10/4 2/1/4 1/11/4
f 7/13/5 5/37/5 1/14/5
f 4/16/6 2/38/6 6/17/6
f 10/19/1 12/22/1 11/20/1
f 12/22/2 16/25/2 15/23/2
f 16/25/3 14/28/3 13/26/3
f 14/28/4 10/19/4 9/29/4
f 15/31/5 13/39/5 9/32/5
f 12/34/6 10/40/6 14/35/6
g 2
v 0.96875 0.8125 -0.03125
v 0.96875 -0.4375 -0.03125
v 0.96875 0.8125 0.03125
v 0.96875 -0.4375 0.03125
v -0.96875 0.8125 -0.03125
v -0.96875 -0.4375 -0.03125
v -0.96875 0.8125 0.03125
v -0.96875 -0.4375 0.03125
v 0.84375 -0.0625 0.03125
v 0.84375 0.4375 0.03125
v -0.84375 -0.0625 0.03125
v -0.84375 0.4375 0.03125
v -0.84375 -0.0625 -0.03125
v -0.84375 0.4375 -0.03125
v 0.84375 -0.0625 -0.03125
v 0.84375 0.4375 -0.03125
v -0.90625 -0.3125 0.03125
v -0.90625 -0.4375 0.03125
v 0.90625 -0.3125 0.03125
v 0.90625 -0.4375 0.03125
v -0.90625 -0.4375 -0.03125
v 0.90625 -0.4375 -0.03125
v 0.90625 -0.3125 -0.03125
v -0.90625 -0.3125 -0.03125
vt 0.96875 0.59375
vt 0 0.625
vt 0 0.59375
vt 0.906249 0.187501
vt 0.062499 0.187501
vt 0.031249 0.062501
vt 0 0.000001
vt 0.062499 0.4375
vt -0.000001 0.625
vt 0.96875 0.625
vt 0.9375 0
vt 0.96875 0
vt 0.03125 0.625
vt 0 0
vt 0.03125 0
vt 0 0.000001
vt 0.0625 0.437501
vt 0 0.625
vt 0.90625 0.187501
vt 0.0625 0.187501
vt 0.03125 0.062501
vt 0.0625 0.46875
vt 0.90625 0.4375
vt 0.90625 0.46875
vt 0.90625 0.1875
vt 0.9375 0.4375
vt 0.90625 0.4375
vt 0.0625 0.15625
vt 0.90625 0.15625
vt 0.0625 0.1875
vt 0.03125 0.4375
vt 0.03125 0.1875
vt 0.03125 0.09375
vt 0.9375 0.0625
vt 0.9375 0.09375
vt 0.96875 0.0625
vt 0.9375 0
vt 0.96875 0
vt 0.03125 0.0625
vt 0 0
vt 0.03125 0
vt 0.96875 0.625
vt 0.937498 0
vt 0.968749 0
vt 0.937498 0.0625
vt 0.968749 0.625
vt 0.906249 0.4375
vt 0.031249 0.000001
vt 0.9375 0.625
vt 0.9375 0.000001
vt 0.96875 0.000001
vt 0.9375 0.062501
vt 0.96875 0.625
vt 0.90625 0.437501
vt 0.03125 0.000001
vt 0.0625 0.4375
vt 0.9375 0.1875
vt 0.0625 0.4375
vt 0.03125 0.0625
vt 0.9375 0.0625
vt 0 0.0625
vn 0 1 0
vn 0 0 1
vn -1 0 0
vn 1 0 0
vn 0 0 -1
vn 0 -1 0
s off
f 21/41/7 19/42/7 17/43/7
f 25/44/8 27/45/8 33/46/8
f 24/47/8 28/48/8 23/49/8
f 23/50/9 22/51/9 24/52/9
f 17/53/10 20/54/10 18/55/10
f 18/56/11 32/57/11 17/58/11
f 29/59/11 31/60/11 39/61/11
f 28/62/12 32/63/12 26/64/12
f 27/65/10 30/66/10 28/67/10
f 27/65/7 31/68/7 29/69/7
f 25/70/9 32/71/9 31/72/9
f 33/73/12 39/74/12 35/75/12
f 40/76/10 34/77/10 37/78/10
f 35/79/9 38/80/9 36/81/9
f 21/41/7 23/82/7 19/42/7
f 36/83/8 20/84/8 35/85/8
f 20/84/8 19/86/8 26/87/8
f 35/85/8 20/84/8 25/44/8
f 19/86/8 23/49/8 28/48/8
f 19/86/8 28/48/8 26/87/8
f 24/47/8 34/88/8 33/46/8
f 20/84/8 26/87/8 25/44/8
f 27/45/8 24/47/8 33/46/8
f 33/46/8 35/85/8 25/44/8
f 24/47/8 27/45/8 28/48/8
f 23/50/9 21/89/9 22/51/9
f 17/53/10 19/42/10 20/54/10
f 18/56/11 31/60/11 32/57/11
f 37/90/11 22/91/11 40/92/11
f 22/91/11 21/93/11 30/94/11
f 40/92/11 22/91/11 29/59/11
f 21/93/11 17/58/11 32/57/11
f 21/93/11 32/57/11 30/94/11
f 18/56/11 38/95/11 39/61/11
f 22/91/11 30/94/11 29/59/11
f 31/60/11 18/56/11 39/61/11
f 39/61/11 40/92/11 29/59/11
f 28/62/12 30/96/12 32/63/12
f 27/65/10 29/97/10 30/66/10
f 27/65/7 25/70/7 31/68/7
f 25/70/9 26/98/9 32/71/9
f 33/73/12 40/99/12 39/74/12
f 40/76/10 33/100/10 34/77/10
f 35/79/9 39/101/9 38/80/9
g 3
v -0.96875 -0.4375 0.005
v -0.96875 1.3125 0.005
v -0.96875 -0.4375 -0.005
v -0.96875 1.3125 -0.005
v 0.96875 -0.4375 0.005
v 0.96875 1.3125 0.005
v 0.96875 -0.4375 -0.005
v 0.96875 1.3125 -0.005
vt 0.96875 0.875
vt 0 0
vt 0.96875 0
vt 0.96875 0.875
vt 0 0
vt 0.96875 0
vt 0 0.875
vt 0 0.875
vn 0 0 -1
vn 0 0 1
s off
f 44/102/13 47/103/13 43/104/13
f 46/105/14 41/106/14 45/107/14
f 44/102/13 48/108/13 47/103/13
f 46/105/14 42/109/14 41/106/14
