g 1
v 0.375 -0.4375 -0.375
v 0.375 -0.5 -0.375
v 0.375 -0.4375 0.375
v 0.375 -0.5 0.375
v -0.375 -0.4375 -0.375
v -0.375 -0.5 -0.375
v -0.375 -0.4375 0.375
v -0.375 -0.5 0.375
vt 0.875 0.125
vt 0.875 0.875
vt 0.125 0.875
vt 0.125 0.125
vt 0 0.125
vt 0 0.875
vt 0.125 1
vt 0.875 1
vt 0.125 0.125
vt 0.875 0.125
vt 0.875 0.875
vt 0.125 0.875
vt 0.875 0
vt 0.125 0
vt 1 0.875
vt 1 0.125
vn 0 1 0
vn 0 0 1
vn -1 0 0
vn 0 -1 0
vn 1 0 0
vn 0 0 -1
s off
f 1/1/1 5/2/1 7/3/1 3/4/1
f 4/5/2 3/4/2 7/3/2 8/6/2
f 8/7/3 7/3/3 5/2/3 6/8/3
f 6/9/4 2/10/4 4/11/4 8/12/4
f 2/13/5 1/1/5 3/4/5 4/14/5
f 6/15/6 5/2/6 1/1/6 2/16/6
g 2
v -0.25 -0.46875 0.25
v -0.03125 0.40625 0.03125
v -0.25 -0.46875 -0.25
v -0.03125 0.40625 -0.03125
v 0.25 -0.46875 0.25
v 0.03125 0.40625 0.03125
v 0.25 -0.46875 -0.25
v 0.03125 0.40625 -0.03125
vt 0.777184 0
vt 0.534648 1
vt 0.465352 1
vt 0.222816 0
vt 0.777184 0
vt 0.534648 1
vt 0.465352 1
vt 0.222816 0
vt 0.777184 0
vt 0.534648 1
vt 0.465352 1
vt 0.222816 0
vt 0.777184 0
vt 0.534648 1
vt 0.465352 1
vt 0.222816 0
vt 0.465352 0.930704
vt 0.534648 0.930704
vn -0.9701 0.2425 0
vn 0 0.2425 -0.9701
vn 0.9701 0.2425 0
vn 0 0.2425 0.9701
vn 0 1 0
s off
f 9/17/7 10/18/7 12/19/7 11/20/7
f 11/21/8 12/22/8 16/23/8 15/24/8
f 15/25/9 16/26/9 14/27/9 13/28/9
f 13/29/10 14/30/10 10/31/10 9/32/10
f 16/33/11 12/34/11 10/18/11 14/27/11
g 3
v 0.1875 0.40625 0.005
v 0.1875 0.78125 0.005
v -0.1875 0.40625 0.005
v -0.1875 0.78125 0.005
v 0.1875 0.40625 -0.005
v 0.1875 0.78125 -0.005
v -0.1875 0.40625 -0.005
v -0.1875 0.78125 -0.005
vt 1 0
vt 1 1
vt 0 1
vt 0 0
vt 1 0
vt 1 1
vt 0 1
vt 0 0
vn 0 0 1
vn 0 0 -1
s off
f 17/35/12 18/36/12 20/37/12 19/38/12
f 23/39/13 24/40/13 22/41/13 21/42/13
